<svg width="53" height="73" viewBox="0 0 53 73" fill="none" xmlns="http://www.w3.org/2000/svg">
<g filter="url(#filter0_d_79_14)">
<path fill-rule="evenodd" clip-rule="evenodd" d="M47.5369 17.7292C47.5248 17.5078 47.3353 17.3382 47.1136 17.3504L7.21059 19.5334C6.98894 19.5455 6.81911 19.7348 6.83125 19.9561L7.15784 25.9083C7.16836 26.1001 7.31352 26.2576 7.50408 26.2839L23.1721 28.4485C23.2921 28.4651 23.4129 28.4263 23.503 28.3454C24.0395 27.8639 24.6615 27.4121 25.3691 26.9902C28.4457 25.1095 32.4608 24.0337 37.4144 23.7627C40.9956 23.5668 44.3218 23.7679 47.3929 24.3661C47.6525 24.4167 47.8926 24.2112 47.8781 23.9475L47.5369 17.7292ZM4.60736 30.7784C4.59362 30.528 4.81064 30.3265 5.05973 30.3583L20.6817 32.3558C20.911 32.3852 21.0673 32.6011 21.0386 32.8302C20.9836 33.27 20.9689 33.7238 20.9946 34.1917C21.1622 37.2468 22.7067 39.438 25.6281 40.7652C27.2376 41.5413 29.6258 42.2012 32.7928 42.7449C33.2783 42.8282 33.2455 43.6389 32.7536 43.6658L5.79792 45.1405C5.57627 45.1527 5.38675 44.9831 5.37461 44.7618L4.60736 30.7784ZM45.8381 38.1209C45.8523 38.379 45.622 38.5829 45.3667 38.5406C44.2527 38.3561 43.0558 38.1949 41.776 38.0567C36.778 37.519 33.4986 36.9099 31.9376 36.2292C30.642 35.774 29.8601 35.0243 29.5917 33.9803C29.5275 33.7304 29.7495 33.5153 30.0057 33.5481L45.3653 35.512C45.5577 35.5366 45.705 35.6948 45.7156 35.8882L45.8381 38.1209ZM48.8767 47.9425C48.8357 47.1945 48.543 46.5558 47.9986 46.0265C47.9228 45.9528 47.8183 45.9175 47.7126 45.9233L9.57809 48.0095C9.35644 48.0217 9.18661 48.2109 9.19875 48.4322L10.075 64.4015C10.0893 64.6631 10.3469 64.8411 10.5972 64.7623L31.4248 58.2028C31.8376 58.0728 31.7842 57.4491 31.3573 57.3776C27.8629 56.792 24.5283 55.7389 21.3534 54.2184C20.7769 53.9423 20.6748 53.0267 21.162 52.5853L24.6273 49.4454C24.8538 49.2402 25.1564 49.1982 25.4232 49.3303C30.4589 51.8239 35.4813 52.9338 40.4905 52.6597C43.0663 52.5188 45.1259 52.0231 46.6691 51.1726C48.2099 50.2772 48.9458 49.2005 48.8767 47.9425ZM34.2975 29.9855C33.8834 29.9283 33.839 29.4088 34.2466 29.3164C35.1887 29.1027 36.2393 28.9641 37.3982 28.9007C39.7759 28.7706 42.2027 28.9308 44.6785 29.3811C45.8875 29.5793 46.9805 29.8269 47.9575 30.1239C48.1169 30.1724 48.2276 30.316 48.2367 30.4822L48.289 31.4358C48.3028 31.6879 48.083 31.8899 47.8326 31.8554L34.2975 29.9855ZM17.8251 21.9072C17.8621 22.5815 17.4374 23.1529 16.8766 23.1836C16.3158 23.2143 15.8311 22.6926 15.7941 22.0183C15.7571 21.344 16.1818 20.7725 16.7426 20.7418C17.3035 20.7112 17.7881 21.2329 17.8251 21.9072ZM38.5829 21.9961C39.1438 21.9654 39.5684 21.3939 39.5314 20.7197C39.4944 20.0454 39.0098 19.5236 38.4489 19.5543C37.8881 19.585 37.4634 20.1565 37.5004 20.8308C37.5374 21.5051 38.0221 22.0268 38.5829 21.9961Z" fill="url(#paint0_linear_79_14)"/>
</g>
<g filter="url(#filter1_d_79_14)">
<path fill-rule="evenodd" clip-rule="evenodd" d="M41.7975 37.8572L41.7976 37.8572C43.0806 37.9957 44.2813 38.1575 45.3996 38.3427C45.5294 38.3642 45.6445 38.2603 45.6374 38.1319L45.5149 35.8991C45.5096 35.8025 45.436 35.7234 45.3398 35.7111L29.9802 33.7471C29.9151 33.7388 29.8579 33.7622 29.822 33.7987C29.7879 33.8334 29.7731 33.8787 29.7864 33.9304C30.0335 34.8919 30.7526 35.6001 32.0043 36.0399L32.0112 36.0423L32.018 36.0453C33.5461 36.7116 36.7945 37.319 41.7975 37.8572ZM44.6425 29.5786L44.6425 29.5785C42.1813 29.1308 39.7703 28.9719 37.4092 29.1011C36.2594 29.164 35.2203 29.3013 34.2911 29.512C34.2311 29.5257 34.2008 29.5513 34.1855 29.5717C34.1694 29.5933 34.162 29.6199 34.1642 29.6481C34.1683 29.6997 34.2082 29.7706 34.325 29.7867L47.8601 31.6566C47.9853 31.6739 48.0953 31.5728 48.0883 31.4468L48.036 30.4931C48.0314 30.4094 47.976 30.3393 47.899 30.3159C46.932 30.0219 45.8478 29.7762 44.6459 29.5791L44.6425 29.5786ZM47.1246 17.5507L7.22158 19.7338C7.11076 19.7398 7.02584 19.8345 7.03191 19.9451L7.3585 25.8973C7.36376 25.9932 7.43634 26.072 7.53162 26.0851L23.1996 28.2497C23.259 28.2579 23.321 28.239 23.3687 28.1962C23.9158 27.7051 24.5483 27.246 25.2651 26.8185C28.3787 24.9155 32.4289 23.8345 37.4034 23.5623C40.9988 23.3656 44.3418 23.5674 47.4314 24.1692C47.5646 24.1952 47.6846 24.0894 47.6775 23.9584L47.3363 17.7401C47.3302 17.6295 47.2354 17.5447 47.1246 17.5507ZM25.3691 26.9902C24.6615 27.4121 24.0394 27.8639 23.503 28.3454C23.4129 28.4263 23.2921 28.4651 23.1721 28.4485L7.50408 26.2839C7.31352 26.2576 7.16836 26.1001 7.15784 25.9083L6.83125 19.9561C6.81911 19.7348 6.98894 19.5455 7.21059 19.5334L47.1136 17.3504C47.3353 17.3382 47.5248 17.5078 47.5369 17.7292L47.8781 23.9475C47.8926 24.2112 47.6525 24.4167 47.3929 24.3661C44.3218 23.7679 40.9956 23.5668 37.4144 23.7627C32.4608 24.0337 28.4457 25.1095 25.3691 26.9902ZM20.6562 32.5549L5.03421 30.5574C4.90966 30.5415 4.80115 30.6422 4.80802 30.7674L5.57527 44.7508C5.58134 44.8614 5.6761 44.9462 5.78692 44.9402L32.7426 43.4655C32.8491 43.4596 32.9325 43.372 32.9389 43.2182C32.9453 43.0642 32.8682 42.9614 32.7587 42.9426C29.5868 42.3982 27.1775 41.7348 25.5427 40.9469C24.0569 40.2715 22.9105 39.3714 22.1143 38.2419C21.3175 37.1114 20.8795 35.7623 20.7939 34.2027C20.7676 33.7235 20.7826 33.2576 20.8392 32.8053C20.8551 32.678 20.7679 32.5692 20.6562 32.5549ZM25.6281 40.7652C22.7067 39.438 21.1622 37.2468 20.9946 34.1917C20.9689 33.7238 20.9836 33.27 21.0386 32.8302C21.0673 32.6011 20.911 32.3852 20.6817 32.3558L5.05973 30.3583C4.81064 30.3265 4.59362 30.528 4.60736 30.7784L5.37461 44.7618C5.38675 44.9831 5.57627 45.1527 5.79792 45.1405L32.7536 43.6658C33.2455 43.6389 33.2783 42.8282 32.7928 42.7449C29.6258 42.2012 27.2376 41.5414 25.6281 40.7652ZM41.776 38.0567C36.778 37.519 33.4986 36.9099 31.9376 36.2292C30.642 35.774 29.8601 35.0243 29.5917 33.9803C29.5275 33.7304 29.7495 33.5153 30.0057 33.5481L45.3653 35.512C45.5577 35.5366 45.705 35.6948 45.7156 35.8882L45.8381 38.1209C45.8523 38.379 45.622 38.5829 45.3667 38.5406C44.2527 38.3561 43.0558 38.1949 41.776 38.0567ZM48.6761 47.9535C48.6378 47.2564 48.3672 46.6649 47.8584 46.1702C47.8264 46.1391 47.7783 46.1206 47.7236 46.1236L9.58908 48.2099C9.47826 48.216 9.39334 48.3106 9.39941 48.4213L10.2756 64.3905C10.2828 64.5213 10.4116 64.6103 10.5367 64.5709L31.3644 58.0114C31.4639 57.9801 31.5146 57.8919 31.5057 57.7849C31.4967 57.6772 31.4302 57.5933 31.324 57.5755C27.8112 56.9868 24.4585 55.9281 21.2665 54.3994C20.9012 54.2244 20.7017 53.8558 20.6592 53.4868C20.6166 53.1174 20.7261 52.7092 21.0269 52.4367L24.4923 49.2968C24.779 49.037 25.1705 48.9811 25.5125 49.1505C30.5209 51.6307 35.509 52.7313 40.4795 52.4594C43.0369 52.3194 45.0629 51.8281 46.5701 50.998C48.0749 50.1229 48.7393 49.1058 48.6761 47.9535ZM46.6691 51.1726C45.1259 52.0231 43.0663 52.5188 40.4905 52.6597C35.4813 52.9338 30.4589 51.8239 25.4232 49.3303C25.1564 49.1982 24.8538 49.2402 24.6273 49.4454L21.162 52.5853C20.6748 53.0267 20.7769 53.9423 21.3534 54.2184C24.5283 55.7389 27.8629 56.792 31.3573 57.3776C31.7842 57.4491 31.8376 58.0728 31.4248 58.2028L10.5972 64.7623C10.3469 64.8411 10.0893 64.6631 10.075 64.4015L9.19875 48.4322C9.18661 48.2109 9.35644 48.0217 9.57809 48.0095L47.7126 45.9233C47.8183 45.9175 47.9228 45.9528 47.9986 46.0265C48.543 46.5558 48.8357 47.1945 48.8767 47.9425C48.9458 49.2005 48.2099 50.2772 46.6691 51.1726ZM44.6785 29.3811C42.2027 28.9308 39.7759 28.7706 37.3982 28.9007C36.2393 28.9641 35.1887 29.1027 34.2466 29.3164C33.839 29.4088 33.8834 29.9283 34.2975 29.9855L47.8326 31.8554C48.083 31.8899 48.3028 31.6879 48.289 31.4358L48.2367 30.4822C48.2276 30.316 48.1169 30.1724 47.9575 30.1239C46.9805 29.8269 45.8875 29.5793 44.6785 29.3811ZM18.0258 21.8962C18.0668 22.6447 17.5925 23.3454 16.8876 23.384C16.1827 23.4226 15.6345 22.7778 15.5934 22.0293C15.5524 21.2808 16.0267 20.58 16.7316 20.5415C17.4366 20.5029 17.9847 21.1477 18.0258 21.8962ZM39.7321 20.7087C39.7732 21.4572 39.2988 22.1579 38.5939 22.1965C37.889 22.235 37.3408 21.5903 37.2998 20.8417C37.2587 20.0932 37.733 19.3925 38.4379 19.354C39.1429 19.3154 39.691 19.9602 39.7321 20.7087ZM16.8766 23.1836C17.4374 23.1529 17.8621 22.5815 17.8251 21.9072C17.7881 21.2329 17.3035 20.7112 16.7426 20.7418C16.1818 20.7725 15.7571 21.344 15.7941 22.0183C15.8311 22.6926 16.3158 23.2143 16.8766 23.1836ZM39.5314 20.7197C39.5684 21.3939 39.1438 21.9654 38.5829 21.9961C38.0221 22.0268 37.5374 21.5051 37.5004 20.8308C37.4634 20.1565 37.8881 19.585 38.4489 19.5543C39.0098 19.5236 39.4944 20.0454 39.5314 20.7197Z" fill="#632C49" fill-opacity="0.4" shape-rendering="crispEdges"/>
</g>
<g filter="url(#filter2_d_79_14)">
<path fill-rule="evenodd" clip-rule="evenodd" d="M26.5338 1.74371C21.5812 2.00155 16.5676 7.21556 17.1476 17.7864C17.1646 18.0963 16.9269 18.3612 16.6166 18.3782C16.3063 18.3952 16.0409 18.1577 16.0239 17.8479C15.4271 6.97007 20.6272 0.925943 26.4752 0.621488C32.3198 0.317208 38.1518 5.78242 38.7456 16.6048C38.7626 16.9147 38.5248 17.1796 38.2145 17.1966C37.9042 17.2136 37.6389 16.9762 37.6219 16.6663C37.0451 6.15404 31.4897 1.4857 26.5338 1.74371Z" fill="#5B2C4A"/>
</g>
<defs>
<filter id="filter0_d_79_14" x="0.60675" y="17.3498" width="52.2744" height="55.4313" filterUnits="userSpaceOnUse" color-interpolation-filters="sRGB">
<feFlood flood-opacity="0" result="BackgroundImageFix"/>
<feColorMatrix in="SourceAlpha" type="matrix" values="0 0 0 0 0 0 0 0 0 0 0 0 0 0 0 0 0 0 127 0" result="hardAlpha"/>
<feOffset dy="4"/>
<feGaussianBlur stdDeviation="2"/>
<feComposite in2="hardAlpha" operator="out"/>
<feColorMatrix type="matrix" values="0 0 0 0 0 0 0 0 0 0 0 0 0 0 0 0 0 0 0.25 0"/>
<feBlend mode="normal" in2="BackgroundImageFix" result="effect1_dropShadow_79_14"/>
<feBlend mode="normal" in="SourceGraphic" in2="effect1_dropShadow_79_14" result="shape"/>
</filter>
<filter id="filter1_d_79_14" x="0.60675" y="17.3498" width="52.2744" height="55.4313" filterUnits="userSpaceOnUse" color-interpolation-filters="sRGB">
<feFlood flood-opacity="0" result="BackgroundImageFix"/>
<feColorMatrix in="SourceAlpha" type="matrix" values="0 0 0 0 0 0 0 0 0 0 0 0 0 0 0 0 0 0 127 0" result="hardAlpha"/>
<feOffset dy="4"/>
<feGaussianBlur stdDeviation="2"/>
<feComposite in2="hardAlpha" operator="out"/>
<feColorMatrix type="matrix" values="0 0 0 0 0 0 0 0 0 0 0 0 0 0 0 0 0 0 0.25 0"/>
<feBlend mode="normal" in2="BackgroundImageFix" result="effect1_dropShadow_79_14"/>
<feBlend mode="normal" in="SourceGraphic" in2="effect1_dropShadow_79_14" result="shape"/>
</filter>
<filter id="filter2_d_79_14" x="11.9771" y="0.609451" width="30.7693" height="25.7696" filterUnits="userSpaceOnUse" color-interpolation-filters="sRGB">
<feFlood flood-opacity="0" result="BackgroundImageFix"/>
<feColorMatrix in="SourceAlpha" type="matrix" values="0 0 0 0 0 0 0 0 0 0 0 0 0 0 0 0 0 0 127 0" result="hardAlpha"/>
<feOffset dy="4"/>
<feGaussianBlur stdDeviation="2"/>
<feComposite in2="hardAlpha" operator="out"/>
<feColorMatrix type="matrix" values="0 0 0 0 0 0 0 0 0 0 0 0 0 0 0 0 0 0 0.25 0"/>
<feBlend mode="normal" in2="BackgroundImageFix" result="effect1_dropShadow_79_14"/>
<feBlend mode="normal" in="SourceGraphic" in2="effect1_dropShadow_79_14" result="shape"/>
</filter>
<linearGradient id="paint0_linear_79_14" x1="25.0985" y1="6.50786" x2="28.8108" y2="74.3653" gradientUnits="userSpaceOnUse">
<stop stop-color="#001F54"/>
<stop offset="0.51" stop-color="#FF4136"/>
<stop offset="1" stop-color="#FFD700"/>
</linearGradient>
</defs>
</svg>
